<svg xmlns="http://www.w3.org/2000/svg" fill="none" style="-webkit-print-color-adjust:exact" viewBox="-0.75 -0.75 11.5 15.5">
	<path stroke="#fff" stroke-linecap="round" stroke-width="0.75" d="M4.5 14s-.2-.668-.347-2.004a25.516 25.516 0 0 1-.136-1.962 30.56 30.56 0 0 1-.003-1.998 25.9 25.9 0 0 1 .135-1.996C4.296 4.68 4.5 4 4.5 4m1 10s.196-.654.343-1.961c.062-.551.115-1.22.14-2.005a30.56 30.56 0 0 0 .003-1.998 26.302 26.302 0 0 0-.13-1.951C5.708 4.695 5.5 4 5.5 4m-3 9s-.196-.326-.342-1.223c-.077-.47-.14-1.096-.155-1.914a21.256 21.256 0 0 1 .253-3.652C2.379 5.443 2.5 5 2.5 5m5 8s.15-.399.285-1.196a15.6 15.6 0 0 0 .194-1.866 21.068 21.068 0 0 0 .004-1.765 15.566 15.566 0 0 0-.191-1.934C7.655 5.413 7.5 5 7.5 5M0 8.5s.654-.196 1.961-.343c.551-.062 1.22-.115 2.005-.14a30.56 30.56 0 0 1 1.998-.003c.757.024 1.408.072 1.951.13C9.305 8.292 10 8.5 10 8.5m-10 1s.654.196 1.961.343c.551.062 1.22.115 2.005.14a30.56 30.56 0 0 0 1.998.003 25.9 25.9 0 0 0 1.996-.135C9.32 9.704 10 9.5 10 9.5m-9-3s.406-.152 1.218-.289a15.56 15.56 0 0 1 1.899-.192 20.307 20.307 0 0 1 1.71-.002c.793.032 1.438.108 1.934.191C8.587 6.345 9 6.5 9 6.5m-8 5s.366.137 1.099.268c.501.09 1.174.176 2.018.213a20.307 20.307 0 0 0 1.71.002 15.566 15.566 0 0 0 1.934-.191C8.587 11.655 9 11.5 9 11.5" />
	<path stroke="#fff" stroke-linecap="round" stroke-width="1.5" d="M5 4c2.76 0 5 2.24 5 5s-2.24 5-5 5-5-2.24-5-5 2.24-5 5-5Zm0 0V0" />
</svg>
